<mxfile host="app.diagrams.net" modified="2021-03-14T15:56:28.790Z" agent="5.0 (Windows NT 10.0; Win64; x64) AppleWebKit/537.36 (KHTML, like Gecko) Chrome/89.0.4389.82 Safari/537.36 Edg/89.0.774.50" etag="iNUhuh1CmeydLlLhxcDA" version="14.4.8" type="github">
  <diagram name="Page-1" id="c4acf3e9-155e-7222-9cf6-157b1a14988f">
    <mxGraphModel dx="1240" dy="528" grid="1" gridSize="10" guides="1" tooltips="1" connect="1" arrows="1" fold="1" page="1" pageScale="1" pageWidth="850" pageHeight="1100" background="#ffffff" math="0" shadow="0">
      <root>
        <mxCell id="0" />
        <mxCell id="1" parent="0" />
        <mxCell id="WXotLo-VfnmUVOcAUx9u-1" value="GitHubRepository" style="rounded=0;whiteSpace=wrap;html=1;" vertex="1" parent="1">
          <mxGeometry x="100" y="70" width="140" height="40" as="geometry" />
        </mxCell>
        <mxCell id="WXotLo-VfnmUVOcAUx9u-2" value="EmailNotification" style="rounded=0;whiteSpace=wrap;html=1;" vertex="1" parent="1">
          <mxGeometry x="300" y="70" width="140" height="40" as="geometry" />
        </mxCell>
        <mxCell id="WXotLo-VfnmUVOcAUx9u-3" value="" style="rounded=0;whiteSpace=wrap;html=1;" vertex="1" parent="1">
          <mxGeometry x="170" y="220" width="200" height="50" as="geometry" />
        </mxCell>
        <mxCell id="WXotLo-VfnmUVOcAUx9u-11" value="teamRegistration,&lt;br&gt;submitURL,&lt;br&gt;submitDocument" style="edgeStyle=orthogonalEdgeStyle;rounded=0;orthogonalLoop=1;jettySize=auto;html=1;exitX=0.5;exitY=0;exitDx=0;exitDy=0;entryX=0.25;entryY=1;entryDx=0;entryDy=0;" edge="1" parent="1" source="WXotLo-VfnmUVOcAUx9u-4" target="WXotLo-VfnmUVOcAUx9u-3">
          <mxGeometry x="0.25" y="-30" relative="1" as="geometry">
            <mxPoint as="offset" />
          </mxGeometry>
        </mxCell>
        <mxCell id="WXotLo-VfnmUVOcAUx9u-4" value="Students" style="rounded=0;whiteSpace=wrap;html=1;" vertex="1" parent="1">
          <mxGeometry x="100" y="370" width="120" height="60" as="geometry" />
        </mxCell>
        <mxCell id="WXotLo-VfnmUVOcAUx9u-7" value="genReport,&lt;br&gt;pullRepo" style="edgeStyle=orthogonalEdgeStyle;rounded=0;orthogonalLoop=1;jettySize=auto;html=1;exitX=0.25;exitY=0;exitDx=0;exitDy=0;entryX=0.5;entryY=1;entryDx=0;entryDy=0;" edge="1" parent="1" source="WXotLo-VfnmUVOcAUx9u-3" target="WXotLo-VfnmUVOcAUx9u-1">
          <mxGeometry x="0.75" y="-30" relative="1" as="geometry">
            <mxPoint as="offset" />
          </mxGeometry>
        </mxCell>
        <mxCell id="WXotLo-VfnmUVOcAUx9u-8" value="sendEmail" style="edgeStyle=orthogonalEdgeStyle;rounded=0;orthogonalLoop=1;jettySize=auto;html=1;exitX=0.75;exitY=0;exitDx=0;exitDy=0;entryX=0.5;entryY=1;entryDx=0;entryDy=0;" edge="1" parent="1" source="WXotLo-VfnmUVOcAUx9u-3" target="WXotLo-VfnmUVOcAUx9u-2">
          <mxGeometry x="0.75" y="30" relative="1" as="geometry">
            <mxPoint as="offset" />
          </mxGeometry>
        </mxCell>
        <mxCell id="WXotLo-VfnmUVOcAUx9u-12" value="pullCode,&lt;br&gt;releaseMark" style="edgeStyle=orthogonalEdgeStyle;rounded=0;orthogonalLoop=1;jettySize=auto;html=1;exitX=0.5;exitY=0;exitDx=0;exitDy=0;entryX=0.75;entryY=1;entryDx=0;entryDy=0;" edge="1" parent="1" source="WXotLo-VfnmUVOcAUx9u-5" target="WXotLo-VfnmUVOcAUx9u-3">
          <mxGeometry x="0.125" y="30" relative="1" as="geometry">
            <mxPoint x="1" as="offset" />
          </mxGeometry>
        </mxCell>
        <mxCell id="WXotLo-VfnmUVOcAUx9u-5" value="Tutors" style="rounded=0;whiteSpace=wrap;html=1;" vertex="1" parent="1">
          <mxGeometry x="320" y="370" width="120" height="60" as="geometry" />
        </mxCell>
        <mxCell id="WXotLo-VfnmUVOcAUx9u-10" value="projectManagement" style="text;html=1;strokeColor=none;fillColor=none;align=center;verticalAlign=middle;whiteSpace=wrap;rounded=0;" vertex="1" parent="1">
          <mxGeometry x="250" y="235" width="40" height="20" as="geometry" />
        </mxCell>
      </root>
    </mxGraphModel>
  </diagram>
</mxfile>
